<svg xmlns="http://www.w3.org/2000/svg" width="109" height="57" viewBox="0 0 160 50" preserveAspectRatio="xMidYMid meet">
  <g fill="#ffffff" transform="translate(0, 45)" font-size="100px">
    <g transform="scale(1)">
      <g>
        <path d="M68 42.39C68 41.3438 68.9096 40.53 69.9493 40.6459L101.251 44.136C105.227 44.5794 108.591 41.226 108.161 37.2483C107.713 33.1161 103.434 30.5622 99.5844 32.1306L70.4171 44.0151C69.2629 44.4854 68 43.6363 68 42.39Z" fill="url(#paint0_linear_2261_128)"  transform="translate(-20, -60) scale(1.5)"/>
        <path d="M36-42L26.4-42 18-13.98 9.6-42 0.06-42 13.8 0 22.2 0ZM48.6-39.9C48.6-40.62 48.48-41.28 48.18-41.94 47.4-43.74 45.66-45.24 43.2-45.24 42.48-45.24 41.76-45.12 41.1-44.82 39.36-44.04 37.86-42.36 37.86-39.9 37.86-39.18 37.98-38.46 38.28-37.8 39.06-36.06 40.74-34.56 43.2-34.56 43.92-34.56 44.64-34.68 45.3-34.98 47.1-35.76 48.6-37.38 48.6-39.9ZM47.22 0L47.22-31.38 39.18-31.38 39.18 0ZM57.84-28.32L55.2-31.38 53.28-31.38 53.28 0 61.26 0 61.26-17.94C61.26-18.78 61.44-19.56 61.74-20.28 62.58-22.32 64.5-23.94 67.32-23.94 68.16-23.94 68.94-23.76 69.66-23.46 71.64-22.62 73.32-20.7 73.32-17.94L73.32 0 81.3 0 81.3-17.94C81.3-22.2 79.5-25.62 77.22-27.9 75-30.18 71.58-31.98 67.32-31.98 63.3-31.98 60.12-30.36 57.84-28.32ZM117.3-15.96C117.3-21.24 115.32-25.32 112.62-28.02 110.04-30.6 106.2-32.58 101.28-32.58 96.36-32.58 92.52-30.48 89.94-27.84 87.3-25.14 85.26-21.06 85.26-15.96 85.26-10.86 87.3-6.9 89.94-4.2 92.52-1.56 96.36 0.6 101.28 0.6 106.2 0.6 110.04-1.56 112.62-4.2 115.26-6.9 117.3-10.86 117.3-15.96ZM109.26-15.96C109.26-14.7 109.02-13.56 108.6-12.48 107.52-9.72 105.06-7.44 101.28-7.44 100.2-7.44 99.18-7.68 98.22-8.1 95.46-9.36 93.36-12.06 93.36-15.96 93.36-17.22 93.54-18.42 93.96-19.44 95.04-22.26 97.5-24.48 101.28-24.48 102.36-24.48 103.44-24.3 104.4-23.88 107.22-22.68 109.26-19.92 109.26-15.96ZM136.02-32.58C131.1-32.58 127.26-30.48 124.68-27.84 122.04-25.14 120-21.06 120-15.96 120-10.8 122.04-6.84 124.68-4.14 127.26-1.5 131.1 0.6 136.02 0.6 137.04 0.6 138.06 0.42 139.02 0.18 142.26-0.66 144.84-2.34 147-4.32L150.12 0 152.04 0 152.04-43.86 144-43.86 144-29.22C142.5-31.38 139.56-32.58 136.02-32.58ZM144-15.96C144-13.5 142.92-11.46 141.66-10.08 140.4-8.7 138.48-7.44 136.02-7.44 134.94-7.44 133.92-7.68 132.96-8.1 130.26-9.36 128.1-12.12 128.1-15.96 128.1-17.28 128.28-18.48 128.7-19.56 129.78-22.38 132.24-24.48 136.02-24.48 138.48-24.48 140.4-23.28 141.66-21.9 142.92-20.52 144-18.42 144-15.96Z" transform="translate(0, 0)"></path>
            
  <defs>
<linearGradient id="paint0_linear_2261_128" x1="219.1" y1="39.9983" x2="202.599" y2="91.4037" gradientUnits="userSpaceOnUse">
<stop stop-color="#DF8908"/>
<stop offset="1" stop-color="#B415FF"/>
</linearGradient>
</defs>
        
      </g>
    </g>
  </g>
</svg>
